<svg width="11" height="11" viewBox="0 0 11 11" fill="none" xmlns="http://www.w3.org/2000/svg">
<path fill-rule="evenodd" clip-rule="evenodd" d="M8.06231 2.44769C8.22265 2.28735 8.10385 2.01351 7.87722 2.02105L3.01662 2.18272C2.73412 2.19212 2.5 1.96565 2.5 1.68299V1.29981C2.5 1.02367 2.72386 0.799807 3.00001 0.799811L10.2 0.799896C10.4761 0.7999 10.7 1.02376 10.7 1.2999V8.5C10.7 8.77614 10.4761 9 10.2 9H9.8169C9.53424 9 9.30777 8.76587 9.31717 8.48337L9.47894 3.62278C9.48648 3.39615 9.21265 3.27735 9.0523 3.43769L1.84851 10.6413C1.65324 10.8366 1.33667 10.8366 1.14141 10.6413L0.85856 10.3585C0.663297 10.1632 0.663298 9.84663 0.858562 9.65137L8.06231 2.44769Z" fill="#ADACA8"/>
</svg>
